<?xml version="1.0" encoding="UTF-8"?>
<svg id="Layer_1" xmlns="http://www.w3.org/2000/svg" xmlns:xlink="http://www.w3.org/1999/xlink" version="1.1" viewBox="0 0 1200 1200">
  <!-- Generator: Adobe Illustrator 30.4.0, SVG Export Plug-In . SVG Version: 2.1.4 Build 226)  -->
  <defs>
    <style>
      .st0, .st1 {
        fill: none;
      }

      .st2 {
        fill: #2f4c75;
      }

      .st1 {
        stroke: #fff;
        stroke-miterlimit: 10;
        stroke-width: 2.5px;
      }

      .st3 {
        isolation: isolate;
      }

      .st4 {
        fill: #fff;
      }

      .st5 {
        fill: #133362;
      }

      .st6 {
        fill: #202a3b;
      }

      .st7 {
        clip-path: url(#clippath);
      }
    </style>
    <clipPath id="clippath">
      <circle class="st0" cx="600" cy="600" r="531.1"/>
    </clipPath>
  </defs>
  <g>
    <path class="st2" d="M600,0H0v600c0,331.4,268.6,600,600,600s600-268.6,600-600S931.4,0,600,0Z"/>
    <circle class="st4" cx="600" cy="600" r="531.2"/>
    <g class="st7">
      <rect class="st5" x="1.3" y="856.7" width="1198.7" height="157.1"/>
    </g>
  </g>
  <g class="st3">
    <g class="st3">
      <path class="st4" d="M344.6,943.2l7.8,4.8c-6.1,14.4-16.7,19.1-30.7,19.1-19.9,0-32.4-11.7-32.4-31.9s12.5-34.2,32.4-34.2,25.3,5.7,29.8,19.6l-7.8,3.8c-3.8-10.5-12.4-14.4-22-14.4-15.1,0-23.3,9.2-23.3,25.4s9,22.6,23.8,22.6,18.2-6,22.4-14.9Z"/>
    </g>
    <g class="st3">
      <path class="st1" d="M344.6,943.2l7.8,4.8c-6.1,14.4-16.7,19.1-30.7,19.1-19.9,0-32.4-11.7-32.4-31.9s12.5-34.2,32.4-34.2,25.3,5.7,29.8,19.6l-7.8,3.8c-3.8-10.5-12.4-14.4-22-14.4-15.1,0-23.3,9.2-23.3,25.4s9,22.6,23.8,22.6,18.2-6,22.4-14.9Z"/>
    </g>
    <g class="st3">
      <path class="st4" d="M386.1,956.8h43.7v9.3h-52.9v-64.2h52v9.8h-42.8v16.5h35.8v9.5h-35.8v19.2Z"/>
    </g>
    <g class="st3">
      <path class="st1" d="M386.1,956.8h43.7v9.3h-52.9v-64.2h52v9.8h-42.8v16.5h35.8v9.5h-35.8v19.2Z"/>
    </g>
    <g class="st3">
      <path class="st4" d="M494.8,938.4l18,27.7h-11.4l-17.5-27.2h-20.1v27.2h-9.2v-64.2h35c17.3,0,21.5,9.8,21.5,18.5s-8.3,17-16.2,18ZM488.1,929.3c9.5,0,13.6-2.5,13.6-8.7s-4.1-9.2-13.6-9.2h-24.4v17.8h24.4Z"/>
    </g>
    <g class="st3">
      <path class="st1" d="M494.8,938.4l18,27.7h-11.4l-17.5-27.2h-20.1v27.2h-9.2v-64.2h35c17.3,0,21.5,9.8,21.5,18.5s-8.3,17-16.2,18ZM488.1,929.3c9.5,0,13.6-2.5,13.6-8.7s-4.1-9.2-13.6-9.2h-24.4v17.8h24.4Z"/>
    </g>
    <g class="st3">
      <path class="st4" d="M531.9,902h62.5v9.6h-26.6v54.6h-9.3v-54.6h-26.6v-9.6Z"/>
    </g>
    <g class="st3">
      <path class="st1" d="M531.9,902h62.5v9.6h-26.6v54.6h-9.3v-54.6h-26.6v-9.6Z"/>
    </g>
    <g class="st3">
      <path class="st4" d="M616.3,902h9.3v64.1h-9.3v-64.1Z"/>
    </g>
    <g class="st3">
      <path class="st1" d="M616.3,902h9.3v64.1h-9.3v-64.1Z"/>
    </g>
    <g class="st3">
      <path class="st4" d="M653.2,902h56.5v9.7h-47.3v19h39.8v9.5h-39.8v26h-9.2v-64.1Z"/>
    </g>
    <g class="st3">
      <path class="st1" d="M653.2,902h56.5v9.7h-47.3v19h39.8v9.5h-39.8v26h-9.2v-64.1Z"/>
    </g>
    <g class="st3">
      <path class="st4" d="M731.9,902h9.3v64.1h-9.3v-64.1Z"/>
    </g>
    <g class="st3">
      <path class="st1" d="M731.9,902h9.3v64.1h-9.3v-64.1Z"/>
    </g>
    <g class="st3">
      <path class="st4" d="M778,956.8h43.7v9.3h-52.9v-64.2h52v9.8h-42.8v16.5h35.8v9.5h-35.8v19.2Z"/>
    </g>
    <g class="st3">
      <path class="st1" d="M778,956.8h43.7v9.3h-52.9v-64.2h52v9.8h-42.8v16.5h35.8v9.5h-35.8v19.2Z"/>
    </g>
    <g class="st3">
      <path class="st4" d="M846.4,966.1v-64.1h33.9c15.8,0,30.4,8.8,30.4,32s-14.8,32.1-30.7,32.1h-33.6ZM855.6,911.6v44.8h23.8c13.8,0,22-8.5,22-22.3s-8.2-22.6-21.9-22.6h-23.9Z"/>
    </g>
    <g class="st3">
      <path class="st1" d="M846.4,966.1v-64.1h33.9c15.8,0,30.4,8.8,30.4,32s-14.8,32.1-30.7,32.1h-33.6ZM855.6,911.6v44.8h23.8c13.8,0,22-8.5,22-22.3s-8.2-22.6-21.9-22.6h-23.9Z"/>
    </g>
  </g>
  <g>
    <g>
      <path class="st6" d="M538.5,1053.1c0,.8-.1,1.6-.4,2.4-.3.8-.7,1.5-1.3,2.1-.6.6-1.3,1.1-2.2,1.5-.9.4-1.9.6-3,.6h-9.2v-13.3h9c2.1,0,3.8.6,5.1,1.7,1.3,1.1,2,2.8,2,5M543.2,1047.7c-.8-1.5-1.8-2.8-3-3.8-1.2-1-2.6-1.7-4.2-2.1-1.5-.4-3.2-.7-4.8-.7h-14.5v39.3h5.7v-15.5h9.6c1.9,0,3.7-.4,5.2-1.1,1.5-.7,2.8-1.6,3.9-2.7s1.8-2.4,2.4-3.8c.5-1.4.8-2.8.8-4.2,0-2.1-.4-4-1.2-5.5"/>
      <path class="st6" d="M550,1063.7c.2-2.1.8-3.7,1.8-4.9,1.1-1.2,2.5-1.8,4.2-1.8s3.2.6,4.2,1.8c1,1.1,1.6,2.8,1.8,4.9h-12,0ZM566.7,1059.1c-.6-1.5-1.4-2.8-2.4-3.9-1-1.1-2.2-1.9-3.6-2.4-1.4-.6-2.8-.8-4.3-.8s-2.8.2-4.2.7c-1.4.5-2.7,1.3-3.9,2.4-1.1,1.1-2.1,2.6-2.8,4.5s-1.1,4.2-1.1,6.9.3,5.3,1,7.1c.7,1.8,1.6,3.3,2.8,4.4,1.1,1.1,2.5,1.8,3.9,2.2,1.4.4,2.8.6,4.3.6s3.5-.3,5.1-.8c1.7-.6,3.2-1.5,4.5-2.8l.2-.2h0s0,0,0,0l-3.4-3.7h0c0,0,0,0,0,0l-.2.2c-.9.8-1.9,1.4-3,1.9s-2.1.6-2.9.6-2.1-.2-2.9-.6c-.8-.4-1.5-.9-2.1-1.6-.6-.7-1-1.5-1.3-2.4-.3-.9-.4-1.9-.4-2.9h0c0,0,17.6,0,17.6,0v-3.9c0-2-.3-3.7-.9-5.3"/>
      <path class="st6" d="M588.3,1065.6c0,1.4,0,2.6,0,3.5,0,.8-.2,1.6-.3,2.2-.5,1.6-1.3,2.8-2.4,3.5-1.1.7-2.3,1.1-3.7,1.1s-2.4-.3-3.3-.9-1.7-1.5-2.1-2.6c-.3-.8-.6-1.6-.7-2.6,0-.9-.1-2-.1-3.2,0-1.2.1-2.3.2-3.3,0-1,.3-1.8.7-2.7.5-1.1,1.3-2,2.3-2.7,1-.6,2.1-1,3.4-1s2.3.3,3.3.9c1,.6,1.7,1.5,2.2,2.8.3.6.5,1.3.5,2.1,0,.8.1,1.8.1,2.8M593.2,1060.5c-.3-1.5-.8-2.7-1.5-3.8-1-1.5-2.3-2.7-3.9-3.5-1.6-.8-3.4-1.2-5.5-1.2s-4.6.6-6.5,1.7c-1.8,1.1-3.3,2.7-4.2,4.8-.5,1.1-.9,2.3-1.1,3.7-.2,1.3-.3,2.8-.3,4.3,0,2.2.2,4.2.5,5.8.3,1.6.9,3.1,1.6,4.2,1,1.5,2.3,2.6,3.9,3.3,1.6.7,3.4,1.1,5.5,1.1s4.2-.4,6-1.3c1.8-.9,3.2-2.2,4.2-3.9.7-1.1,1.1-2.5,1.4-4.2.3-1.6.4-3.6.4-6s-.2-3.4-.5-4.9"/>
      <path class="st6" d="M614,1066.4c0,1.1,0,2.2-.2,3.3-.1,1.1-.4,2.1-.8,2.9-.4.8-1,1.5-1.8,2.1-.8.5-1.9.8-3.2.8s-2.3-.3-3.1-.8c-.8-.6-1.3-1.3-1.7-2.1-.4-.9-.7-1.9-.8-3-.1-1.1-.2-2.2-.2-3.2s0-2.1.2-3.1c.1-1.1.4-2.1.9-3,.4-.9,1-1.6,1.8-2.2.8-.6,1.8-.9,3.1-.9s2.4.3,3.2.8c.8.6,1.3,1.3,1.7,2.1.4.9.6,1.9.8,3,.1,1.1.2,2.2.2,3.3M619.1,1061c-.3-1.7-.8-3.2-1.6-4.6-.8-1.4-1.8-2.5-3.2-3.3-1.3-.8-3-1.2-5-1.2s-2.8.3-4.1.8c-1.1.4-2.2,1.2-3.1,2.1v-2.7h-5.3v39.2h5.3v-12.9c.7.7,1.6,1.2,2.5,1.6,1.2.4,2.5.7,3.9.7,2.2,0,4-.4,5.5-1.3,1.4-.9,2.6-2,3.4-3.4.8-1.4,1.4-2.9,1.7-4.7.3-1.7.5-3.5.5-5.3s-.1-3.4-.4-5.1"/>
      <path class="st6" d="M632.2,1075.5h-1.7c-1.7,0-2.4-.7-2.4-2.2v-33.8h-5.3v34.2c0,2.5.7,4.2,2,5.3,1.3,1,3,1.5,5.1,1.5h2.3v-4.9h0,0Z"/>
      <path class="st6" d="M638.8,1063.7c.2-2.1.8-3.7,1.8-4.9,1.1-1.2,2.5-1.8,4.2-1.8s3.2.6,4.2,1.8c1,1.1,1.6,2.8,1.8,4.9h-12ZM655.5,1059.1c-.6-1.5-1.4-2.9-2.4-3.9-1-1.1-2.2-1.9-3.6-2.4-1.4-.6-2.8-.8-4.3-.8s-2.8.2-4.2.7c-1.4.5-2.7,1.3-3.9,2.4-1.1,1.1-2.1,2.6-2.8,4.5-.7,1.9-1.1,4.2-1.1,6.9s.3,5.3,1,7.1c.7,1.8,1.6,3.3,2.8,4.4,1.2,1.1,2.5,1.8,3.9,2.2,1.4.4,2.8.6,4.3.6s3.5-.3,5.1-.8c1.7-.6,3.2-1.5,4.5-2.8l.2-.2h0s0,0,0,0l-3.4-3.7h0c0,0,0,0,0,0l-.2.2c-.9.8-1.9,1.4-3,1.9-1.1.4-2.1.6-2.9.6s-2.1-.2-2.9-.6c-.8-.4-1.5-.9-2.1-1.6-.6-.7-1-1.5-1.3-2.4-.3-.9-.4-1.9-.4-2.9h0c0,0,17.6,0,17.6,0v-3.9c0-2-.3-3.7-.9-5.3"/>
      <path class="st6" d="M687.3,1072l-5.1-2.5h0s0,0,0,0v.3c-.7,1.7-1.7,3-3,4-1.3,1-2.9,1.5-4.8,1.5s-2.7-.3-3.8-.8-1.9-1.3-2.6-2.1-1.2-1.9-1.6-3.1c-.4-1.2-.5-2.4-.5-3.6v-10c0-1.2.2-2.3.5-3.5.3-1.1.9-2.1,1.6-3,.7-.8,1.6-1.6,2.6-2.1,1-.5,2.3-.8,3.8-.8s3.5.5,4.8,1.4c1.3.9,2.2,2.2,2.8,3.8v.3c.1,0,.1,0,.1,0h0s5.1-2.3,5.1-2.3h0s0,0,0,0v-.3c-1.1-2.5-2.8-4.6-5-6.1-2.2-1.5-4.9-2.3-8.1-2.3s-4.4.4-6.2,1.2c-1.8.8-3.2,1.9-4.4,3.2s-2.1,2.9-2.7,4.7c-.6,1.8-.9,3.6-.9,5.5v10.6c0,1.9.3,3.8.9,5.6.6,1.8,1.5,3.3,2.7,4.7,1.2,1.3,2.7,2.4,4.4,3.2,1.8.8,3.8,1.2,6.2,1.2s6-.8,8.2-2.2c2.2-1.5,3.9-3.6,4.8-6.2v-.3c0,0,.1,0,.1,0h0s0,0,0,0Z"/>
      <path class="st6" d="M693.5,1063.7c.2-2.1.8-3.7,1.8-4.9,1.1-1.2,2.5-1.8,4.2-1.8s3.2.6,4.2,1.8c1,1.1,1.6,2.8,1.8,4.9h-12,0ZM710.3,1059.1c-.6-1.5-1.4-2.8-2.4-3.9-1-1.1-2.2-1.9-3.6-2.4-1.4-.6-2.8-.8-4.3-.8s-2.8.2-4.2.7c-1.4.5-2.7,1.3-3.9,2.4-1.2,1.1-2.1,2.6-2.8,4.5-.7,1.9-1.1,4.2-1.1,6.9s.3,5.3,1,7.1c.7,1.9,1.6,3.3,2.8,4.4,1.1,1.1,2.5,1.8,3.9,2.2,1.4.4,2.8.6,4.3.6s3.5-.3,5.1-.8c1.7-.6,3.2-1.5,4.5-2.8l.2-.2h0s0,0,0,0l-3.4-3.7h0c0,0,0,0,0,0l-.2.2c-.9.8-1.9,1.4-3,1.9s-2.1.6-2.9.6-2.1-.2-2.9-.6c-.8-.4-1.5-.9-2.1-1.6-.6-.7-1-1.5-1.3-2.4-.3-.9-.4-1.9-.4-2.9h0c0,0,17.6,0,17.6,0v-3.9c0-2-.3-3.7-.9-5.3"/>
      <path class="st6" d="M731.3,1053.3l-.2-.2c-.5-.4-1.3-.7-2.1-.9-.8-.2-1.8-.3-2.8-.3-1.5,0-2.9.3-4.2.9-1,.5-2,1.3-2.9,2.4v-3h-5.3v28.2h5.3v-17c0-2.1.5-3.7,1.7-4.7,1.1-1,2.5-1.6,4.2-1.6s2.6.3,3.7,1l.3.2h0s0,0,0,0l2.2-5h0c0,0,0,0,0,0h0Z"/>
      <path class="st6" d="M745.8,1075.5h-2.7c-1,0-1.6-.3-1.8-.8-.3-.7-.5-1.4-.5-2.2v-15.6h4.2v-4.7h-4.2v-6.8h-5.3v6.8h-3.3v4.7h3.3v16.7c0,2.2.6,3.9,1.9,5.1,1.2,1.2,2.9,1.7,4.9,1.7h3.7v-4.9h0Z"/>
    </g>
    <g>
      <path class="st6" d="M474.7,1056.5c-.7-1.3-1.8-2.4-3.1-3.2-1.3-.8-3-1.2-5-1.2s-2.7.2-4,.7c-1.1.4-2.2,1.2-3.3,2.2v-15.4h-5.2v40.9h5.2v-2.5c.9,1.1,1.9,1.8,3.1,2.2,1.4.4,2.8.7,4.1.7,2.1,0,3.9-.4,5.2-1.3s2.4-2,3.1-3.4c.7-1.4,1.2-3,1.5-4.8.2-1.7.4-3.5.4-5.2h0c0-1.7-.2-3.4-.5-5.1-.3-1.7-.8-3.2-1.6-4.5h0ZM471.4,1066.3c0,1.1,0,2.2-.2,3.3-.1,1.1-.4,2.2-.8,3.1-.4.9-1,1.7-1.8,2.3-.8.6-1.9.9-3.2.9s-2.4-.3-3.1-.9c-.8-.6-1.4-1.4-1.8-2.3-.4-1-.7-2-.8-3.2-.1-1.1-.2-2.2-.2-3.2s0-2.1.2-3.2c.1-1.1.4-2.1.8-3,.4-.9,1-1.6,1.8-2.2.8-.6,1.8-.8,3.1-.8s2.4.3,3.2.8c.8.5,1.4,1.2,1.8,2.1.4.9.7,1.9.8,2.9.1,1.1.2,2.2.2,3.3h0Z"/>
      <path class="st6" d="M496.1,1052.3l-4.4,12.8-2.6,7.8-2.6-7.9-4.5-12.7h-5.8l10.2,27.3-1.5,4.4c-.4,1.1-.8,1.9-1.4,2.3-.5.4-1.1.6-1.8.6h-2.6v4.7h2.7c.8,0,1.5,0,2.2-.2.7-.1,1.5-.4,2.1-.8.7-.4,1.3-1,1.8-1.7.5-.7,1-1.7,1.4-2.8l12-33.8h-5.5,0Z"/>
    </g>
  </g>
  <g class="st3">
    <g class="st3">
      <path class="st2" d="M424.1,641.3v-56.1h32.9c15.3,0,29.6,7.7,29.6,28s-14.4,28.1-29.8,28.1h-32.7ZM433,593.6v39.2h23.2c13.4,0,21.4-7.4,21.4-19.5s-7.9-19.7-21.3-19.7h-23.3Z"/>
    </g>
    <g class="st3">
      <path class="st2" d="M544.4,619.5c0,.9,0,1.6-.2,1.9h-41.9c.9,9.2,7.5,13.7,18.2,13.7s12.6-2,17.2-6.1l5.3,5.7c-5.8,5.1-13.1,7.5-22.9,7.5-16.9,0-26.6-8.8-26.6-22.6s9.7-22.8,25.9-22.8,25,7.9,25,22.8ZM535.8,614.9c-1.8-7.7-7.9-11.2-16.3-11.2s-15.1,3.9-16.8,11.4l33.1-.2Z"/>
    </g>
    <g class="st3">
      <path class="st2" d="M587,597.7h9.7l-22.4,43.5h-7.7l-22.4-43.5h10.1l16.5,32.9,16.2-32.9Z"/>
    </g>
    <g class="st3">
      <path class="st2" d="M663.8,613.6c0,19.7-16.8,28.4-32.3,28.4s-32.2-8.8-32.2-28.4,13-29.4,32.2-29.4,32.3,11.7,32.3,29.4ZM654.9,612.3c0-11.7-9.6-20.1-23.4-20.1s-23,8.4-23,20.1,8.4,21.8,23,21.8,23.4-5.9,23.4-21.8Z"/>
    </g>
    <g class="st3">
      <path class="st2" d="M681.3,597.8v8.3c4.1-5.7,11.7-9.1,19.7-9.1,14.1,0,22.9,8.8,22.9,22.5s-9.8,22.8-23.6,22.8-15-2.6-19-8.4v23.4h-9.1v-59.3h9.1ZM681.3,625.3c4.3,6.7,10.2,9.4,17.2,9.4,10.4,0,16.3-5.6,16.3-15.1s-5.9-15.3-16.3-15.3-12.9,2.6-17.2,9.1v11.9Z"/>
    </g>
    <g class="st3">
      <path class="st2" d="M776.4,628c0,8.3-8,14-22.8,14s-18.8-2.9-25.9-9.1l5.3-6.1c6,5.3,12.6,7.8,20.8,7.8s13.6-2.2,13.6-6.3-5-4.6-14.9-5.4c-13.7-1.2-23-4.1-23-12.8s9.7-13.3,22.2-13.3,17.2,2.8,22.7,7.5l-5.3,6c-5.2-4.4-11.1-6-17.8-6s-12.8.7-12.8,5.5,6.5,4.5,15.2,5.3c13.3,1.1,22.7,3.5,22.7,12.8Z"/>
    </g>
    <g class="st3">
      <path class="st2" d="M485.5,727.3h33v6.3h-40.1v-44.1h7.1v37.8Z"/>
    </g>
    <g class="st3">
      <path class="st2" d="M560.6,716.4c0,.7,0,1.2-.1,1.5h-33c.7,7.3,5.9,10.8,14.3,10.8s9.9-1.6,13.6-4.8l4.1,4.5c-4.6,4-10.3,5.9-18.1,5.9-13.3,0-21-6.9-21-17.8s7.7-18,20.5-18,19.7,6.3,19.7,17.9ZM553.8,712.8c-1.4-6-6.3-8.8-12.8-8.8s-11.9,3.1-13.2,9h26.1Z"/>
    </g>
    <g class="st3">
      <path class="st2" d="M582.6,704.3c-4.9,0-9.4,1.9-12.6,5.6l-4-4.4c4-4.5,9.9-6.9,17.7-6.9,12.6,0,18.1,6.5,18.1,14.5v20.5h-6.8v-4c-4.6,3.4-10.7,4.6-15.4,4.6s-14.9-1.9-14.9-10.9,8.5-11.8,16.5-11.8,9.6.4,13.7,3.9v-2c0-7.4-5.8-9.1-12.2-9.1ZM594.7,719.7c-4.1-2.4-8.8-2.6-11.1-2.6-6.1,0-11.9,1.6-11.9,6s5.4,5.4,9.9,5.4,9.3-1,13.1-3.5v-5.3Z"/>
    </g>
    <g class="st3">
      <path class="st2" d="M640.6,733.6v-6.5c-3.3,4.5-9.2,7.2-15.5,7.2-11.1,0-18.1-6.9-18.1-17.7s7.7-17.9,18.5-17.9,11.9,2.7,15,7.3v-18.5h7.2v46.2h-7.2ZM640.6,711.9c-3.4-5.3-8-7.4-13.6-7.4-8.2,0-12.8,4.4-12.8,11.9s4.6,12,12.8,12,10.2-2,13.6-7.1v-9.4Z"/>
    </g>
    <g class="st3">
      <path class="st2" d="M693.4,716.4c0,.7,0,1.2-.1,1.5h-33c.7,7.3,5.9,10.8,14.3,10.8s9.9-1.6,13.6-4.8l4.1,4.5c-4.6,4-10.3,5.9-18.1,5.9-13.3,0-21-6.9-21-17.8s7.7-18,20.5-18,19.7,6.3,19.7,17.9ZM686.6,712.8c-1.4-6-6.3-8.8-12.8-8.8s-11.9,3.1-13.2,9h26.1Z"/>
    </g>
    <g class="st3">
      <path class="st2" d="M724.8,706.8c-2-.9-4.5-1.4-6.9-1.4-4.8,0-9.6,2-11.8,7.1v21.1h-7.2v-34.2h7.2v6.3h.2c2.2-4.6,7.2-7.1,12.2-7.1s4.4.4,6.3,1.3v6.9Z"/>
    </g>
  </g>
  <g>
    <g>
      <path class="st2" d="M375.7,382.4v-87h51.1c23.8,0,45.9,11.9,45.9,43.4s-22.3,43.6-46.2,43.6h-50.7ZM389.6,308.4v60.8h36c20.9,0,33.1-11.5,33.1-30.2s-12.3-30.6-33-30.6h-36.1Z"/>
      <path class="st2" d="M500.9,369.8h65.9v12.6h-79.8v-87.1h78.5v13.2h-64.6v22.5h54v12.8h-54v26.1h0Z"/>
      <path class="st2" d="M659.4,295.1h15.8l-44.9,87.3h-12.6l-44.9-87.3h15.9l35,69.5,35.7-69.5h0Z"/>
      <path class="st2" d="M775.2,339.4c0,30.5-26.1,44.1-50.1,44.1s-50-13.6-50-44.1,20.2-45.6,50-45.6,50.1,18.2,50.1,45.6ZM761.5,337.4c0-18.2-14.8-31.1-36.4-31.1s-35.7,13-35.7,31.1,13,33.8,35.7,33.8,36.4-9.1,36.4-33.8Z"/>
      <path class="st2" d="M873.8,321c0,17.1-12.6,25.7-29.7,25.7h-40.9v35.7h-13.9v-87.1h54.8c17.1,0,29.7,8.7,29.7,25.8h0ZM860.1,321.1c0-7.9-5.3-13.2-19.1-13.2h-37.7v25.8h37.7c13.8,0,19.1-4.7,19.1-12.6h0Z"/>
      <path class="st2" d="M976.3,356.1c0,16-16,27.5-44.9,27.5s-37.3-5.8-50.8-17.4l9-10.2c11.6,10.2,25.1,14.7,42.4,14.7s29.5-5.1,29.5-14.2-10.8-10.3-32.1-12.2c-23.8-2-45.6-7.8-45.6-25s19.2-25.8,43.7-25.8,34,5.2,44.2,14.2l-9,9.6c-9.9-8.4-23.3-11.5-36.1-11.5s-28.1,3.6-28.1,12.8,14,10.6,32.8,12.2c26.3,2.3,44.9,7.1,44.9,25.1h0Z"/>
    </g>
    <path class="st2" d="M330.6,357.9c.7-4.9,1.3-10,1.6-15.3,0-40.7-33.1-73.7-74-73.7s-26.4,3.5-37.8,10.2c-11.1,6.5-20.4,15.9-26.7,27.1-7.7,13.7-10.8,30-7.9,45.5,2.7,14.6,10.6,28,21.6,37.9,11.1,10,25.3,16.2,40.1,18.1,3.7.5,7.5.6,11.2.4,20.2-.9,38.1-10.2,50.7-24.5,5.5,13,16.9,24,40.6,21.6-3.2-1-26.8-.9-19.5-47.5M265.1,389c-4.9,2.6-10.8,3.3-16.1,1.6-21.1-6.6-36.9-25.9-38-49.1-1.1-25.6,16-48,39.9-54.4,6.4-1.7,13.2-1,19.1,2.1h0c-.4,0-.8,0-1.2,0-21.6,1.5-39.2,16.4-45,36,0-.1.1-.2.1-.4-.2.7-.5,1.3-.7,2-7.9,24.6,7.8,50,33.4,59.8,2.8,1,5.6,1.8,8.4,2.3h0ZM291.1,364c-3.6,5.9-8,11.2-13,15.8-2.4,2.2-5.9,2.8-8.9,1.6-22.5-9-30.5-27.2-24.1-47.1,3.4-10.7,10.7-19.2,20-23.7,14.7-7.1,31.7,2.2,33.8,18.3,1.6,12.6-2.3,26.4-7.9,35.1"/>
    <g>
      <path class="st2" d="M375.7,422.2h7.6v47.1h-7.6v-47.1Z"/>
      <path class="st2" d="M457.9,422.2h7.5v47.1h-6.8l-34.4-38.2v38.2h-7.4v-47.1h9.3l31.8,35.3v-35.3h0Z"/>
      <path class="st2" d="M548.5,455.2c0,8.7-8.7,14.9-24.3,14.9s-20.2-3.1-27.5-9.4l4.9-5.5c6.3,5.5,13.6,8,22.9,8s16-2.8,16-7.7-5.9-5.6-17.4-6.6c-12.9-1.1-24.7-4.2-24.7-13.5s10.4-14,23.7-14,18.4,2.8,24,7.7l-4.8,5.2c-5.4-4.6-12.6-6.2-19.5-6.2s-15.2,2-15.2,7,7.6,5.7,17.7,6.6c14.3,1.2,24.3,3.8,24.3,13.6h0Z"/>
      <path class="st2" d="M575.8,422.2h51v7h-21.7v40.1h-7.6v-40.1h-21.7v-7h0Z"/>
      <path class="st2" d="M655.8,422.2h7.6v47.1h-7.6v-47.1Z"/>
      <path class="st2" d="M692.2,422.2h51v7h-21.7v40.1h-7.6v-40.1h-21.7v-7h0Z"/>
      <path class="st2" d="M772.3,447.1v-24.8h7.3v24.7c0,8.6,5.5,16,18.3,16s18.3-7.3,18.3-15.7v-25h7.4v24.8c0,14.1-9.8,23-25.9,23s-25.4-9.1-25.4-23h0Z"/>
      <path class="st2" d="M852.8,422.2h51v7h-21.7v40.1h-7.6v-40.1h-21.7v-7h0Z"/>
      <path class="st2" d="M940.3,462.6h35.7v6.8h-43.2v-47.2h42.5v7.2h-35v12.2h29.2v7h-29.2v14.1Z"/>
      <path class="st2" d="M1012.5,431.3c0,5.4-4.3,9.6-9.8,9.6s-9.9-4.3-9.9-9.6,4.4-9.6,9.9-9.6,9.8,4.3,9.8,9.6ZM1003,439c4,0,7.1-3.5,7.1-7.6s-3.2-7.6-7.3-7.6-7.5,3.3-7.5,7.6,3.2,7.6,7.8,7.6h0ZM1006.6,433.9c.3,1.5.5,2,.8,2.4h-2.4c-.3-.4-.5-1.2-.8-2.4-.3-.9-.7-1.3-1.9-1.3h-1.1v3.7h-2.3v-9.5c1.1-.3,2.3-.4,3.7-.4s4.1.7,4.1,2.9-1.1,2-1.9,2.3h0c.9.3,1.3,1.1,1.6,2.3h0ZM1004.6,429.5c0-1.2-1.2-1.5-2.1-1.5h-1.2v2.9h1.3c1.1,0,2-.4,2-1.5h0Z"/>
    </g>
  </g>
</svg>